<svg width="560" height="420" viewBox="0 0 560 420" fill="none" xmlns="http://www.w3.org/2000/svg">
  <defs>
    <linearGradient id="bg" x1="0" y1="0" x2="560" y2="420" gradientUnits="userSpaceOnUse">
      <stop stop-color="#EFF6FF"/>
      <stop offset="1" stop-color="#DBEAFE"/>
    </linearGradient>
    <linearGradient id="q1" x1="0" y1="0" x2="1" y2="1">
      <stop stop-color="#1D4ED8"/>
      <stop offset="1" stop-color="#2563EB"/>
    </linearGradient>
    <linearGradient id="q2" x1="0" y1="0" x2="1" y2="1">
      <stop stop-color="#0F766E"/>
      <stop offset="1" stop-color="#14B8A6"/>
    </linearGradient>
    <linearGradient id="q3" x1="0" y1="0" x2="1" y2="1">
      <stop stop-color="#B45309"/>
      <stop offset="1" stop-color="#F59E0B"/>
    </linearGradient>
  </defs>

  <rect x="16" y="16" width="528" height="388" rx="28" fill="url(#bg)" stroke="#BFDBFE" stroke-width="2"/>

  <circle cx="280" cy="210" r="146" fill="#FFFFFF" fill-opacity="0.72"/>

  <g opacity="0.95">
    <path d="M226 132C226 102.4 249.4 78 282.6 78C314.8 78 338 100.8 338 129.2C338 152 326.8 167.6 305.6 181.2C286.8 193.2 281.6 201.6 281.6 216V223.6" stroke="url(#q1)" stroke-width="20" stroke-linecap="round"/>
    <circle cx="282" cy="266" r="13" fill="url(#q1)"/>
  </g>

  <g transform="translate(78 246) scale(0.72)">
    <path d="M226 132C226 102.4 249.4 78 282.6 78C314.8 78 338 100.8 338 129.2C338 152 326.8 167.6 305.6 181.2C286.8 193.2 281.6 201.6 281.6 216V223.6" stroke="url(#q2)" stroke-width="20" stroke-linecap="round"/>
    <circle cx="282" cy="266" r="13" fill="url(#q2)"/>
  </g>

  <g transform="translate(270 236) scale(0.62)">
    <path d="M226 132C226 102.4 249.4 78 282.6 78C314.8 78 338 100.8 338 129.2C338 152 326.8 167.6 305.6 181.2C286.8 193.2 281.6 201.6 281.6 216V223.6" stroke="url(#q3)" stroke-width="20" stroke-linecap="round"/>
    <circle cx="282" cy="266" r="13" fill="url(#q3)"/>
  </g>
</svg>
